<?xml version="1.0" encoding="UTF-8"?>
<svg width="527px" height="140px" viewBox="0 0 527 140" version="1.1" xmlns="http://www.w3.org/2000/svg" xmlns:xlink="http://www.w3.org/1999/xlink">
    <!-- Generator: Sketch 46.2 (44496) - http://www.bohemiancoding.com/sketch -->
    <title>dentto_logo.svg</title>
    <desc>Created with Sketch.</desc>
    <defs></defs>
    <g id="logo" stroke="none" stroke-width="1" fill="none" fill-rule="evenodd">
        <g id="dentto_logo.svg">
            <path d="M60.0757,99.7678 C60.0757,105.2278 55.6077,109.6968 50.1457,109.6968 L40.2167,109.6968 C34.7567,109.6968 30.2877,105.2278 30.2877,99.7678 L30.2877,79.9098 C30.2877,74.4488 34.7567,69.9808 40.2167,69.9808 L50.1457,69.9808 C55.6077,69.9808 60.0757,74.4488 60.0757,79.9098 L60.0757,99.7678 Z M60.0757,41.3858 C56.8977,40.5888 53.6217,40.1928 50.1457,40.1928 L40.2167,40.1928 C29.1967,40.1928 19.8627,44.0648 12.1177,51.8098 C4.3727,59.5558 0.5007,68.8888 0.5007,79.9098 L0.5007,99.7678 C0.5007,110.7888 4.3727,120.1218 12.1177,127.8678 C19.8627,135.6108 29.1967,139.4838 40.2167,139.4838 L50.1457,139.4838 C61.1677,139.4838 70.5007,135.6108 78.2447,127.8678 C85.9897,120.1218 89.8637,110.7888 89.8637,99.7678 L89.8637,0.4768 L60.0757,10.4058 L60.0757,41.3858 Z" id="Fill-1" fill="#083351"></path>
            <path d="M129.5703,79.9094 C129.5703,74.4494 134.0383,69.9814 139.4983,69.9814 L149.4263,69.9814 C154.8893,69.9814 159.3573,74.4494 159.3573,79.9094 L129.5703,79.9094 Z M189.1443,79.9094 C189.1443,68.8884 185.2713,59.5554 177.5273,51.8094 C169.7823,44.0644 160.4493,40.1934 149.4263,40.1934 L139.4983,40.1934 C128.4773,40.1934 119.1443,44.0644 111.3993,51.8094 C103.6553,59.5554 99.7823,68.8884 99.7823,79.9094 L99.7823,99.7674 C99.7823,110.7884 103.6553,120.1214 111.3993,127.8674 C119.1443,135.6114 128.4773,139.4834 139.4983,139.4834 L149.4263,139.4834 C160.4493,139.4834 169.7823,135.6114 177.5273,127.8674 C182.8873,122.5044 186.3633,116.3484 188.0523,109.3984 L159.3573,99.7674 C159.3573,105.2284 154.8893,109.6974 149.4263,109.6974 L139.4983,109.6974 C134.0383,109.6974 129.5703,105.2284 129.5703,99.7674 L159.3573,99.7674 L189.1443,99.7674 L189.1443,79.9094 Z" id="Fill-3" fill="#004058"></path>
            <path d="M238.7785,40.1931 C227.7585,40.1931 218.4265,44.0651 210.6815,51.8091 C202.9365,59.5551 199.0635,68.8881 199.0635,79.9091 L199.0635,129.5541 L228.8515,139.4841 L228.8515,79.9091 C228.8515,74.4491 233.3185,69.9811 238.7785,69.9811 L248.7095,69.9811 C254.1695,69.9811 258.6385,74.4491 258.6385,79.9091 L258.6385,129.5541 L288.4265,139.4841 L288.4265,79.9091 C288.4265,68.8881 284.5535,59.5551 276.8075,51.8091 C269.0635,44.0651 259.7305,40.1931 248.7095,40.1931 L238.7785,40.1931 Z" id="Fill-5" fill="#004A60"></path>
            <path d="M328.1304,10.4055 L298.3434,0.4775 L298.3434,99.7675 C298.3434,110.7885 302.2154,120.1215 309.9604,127.8675 C317.7054,135.6115 327.0394,139.4835 338.0614,139.4835 L357.9194,139.4835 L357.9194,109.6975 L338.0614,109.6975 C332.5984,109.6975 328.1304,105.2285 328.1304,99.7675 L328.1304,69.9815 L357.9194,69.9815 L357.9194,40.1935 L328.1304,40.1935 L328.1304,10.4055 Z" id="Fill-7" fill="#20647D"></path>
            <path d="M397.6294,10.4055 L367.8424,0.4775 L367.8424,99.7675 C367.8424,110.7885 371.7144,120.1215 379.4574,127.8675 C387.2044,135.6115 396.5364,139.4835 407.5574,139.4835 L427.4164,139.4835 L427.4164,109.6975 L407.5574,109.6975 C402.0974,109.6975 397.6294,105.2285 397.6294,99.7675 L397.6294,69.9815 L427.4164,69.9815 L427.4164,40.1935 L397.6294,40.1935 L397.6294,10.4055 Z" id="Fill-9" fill="#34809C"></path>
            <path d="M496.9136,99.7678 C496.9136,105.2278 492.4446,109.6968 486.9826,109.6968 L477.0546,109.6968 C471.5946,109.6968 467.1266,105.2278 467.1266,99.7678 L467.1266,79.9098 C467.1266,74.4488 471.5946,69.9808 477.0546,69.9808 L486.9826,69.9808 C492.4446,69.9808 496.9136,74.4488 496.9136,79.9098 L496.9136,99.7678 Z M515.0826,51.8098 C507.3376,44.0648 498.0056,40.1928 486.9826,40.1928 L477.0546,40.1928 C466.0336,40.1928 456.6996,44.0648 448.9546,51.8098 C441.2116,59.5558 437.3376,68.8888 437.3376,79.9098 L437.3376,99.7678 C437.3376,110.7888 441.2116,120.1218 448.9546,127.8678 C456.6996,135.6108 466.0336,139.4838 477.0546,139.4838 L486.9826,139.4838 C498.0056,139.4838 507.3376,135.6108 515.0826,127.8678 C522.8256,120.1218 526.6996,110.7888 526.6996,99.7678 L526.6996,79.9098 C526.6996,68.8888 522.8256,59.5558 515.0826,51.8098 L515.0826,51.8098 Z" id="Fill-11" fill="#3F8FAC"></path>
        </g>
    </g>
</svg>